<mxfile host="app.diagrams.net" modified="2022-11-23T20:07:14.628Z" agent="5.0 (Windows NT 10.0; Win64; x64) AppleWebKit/537.36 (KHTML, like Gecko) Chrome/107.0.0.0 Safari/537.36" etag="pDjpZM3jJAq6spr3k9Vb" version="20.6.0" type="github">
  <diagram id="a-wJ550SCJioD9VcvtbM" name="Страница 1">
    <mxGraphModel dx="1483" dy="816" grid="1" gridSize="10" guides="1" tooltips="1" connect="1" arrows="1" fold="1" page="1" pageScale="1" pageWidth="827" pageHeight="1169" background="#114B5F" math="0" shadow="0">
      <root>
        <mxCell id="0" />
        <mxCell id="1" parent="0" />
        <mxCell id="e4HfKH6Nf01WdUcodll_-42" value="Record" style="swimlane;fontStyle=1;align=center;verticalAlign=top;childLayout=stackLayout;horizontal=1;startSize=30;horizontalStack=0;resizeParent=1;resizeParentMax=0;resizeLast=0;collapsible=1;marginBottom=0;rounded=1;fillColor=#fff2cc;strokeColor=#d6b656;arcSize=0;gradientColor=#ffd966;" parent="1" vertex="1">
          <mxGeometry x="89" y="804" width="200" height="220" as="geometry">
            <mxRectangle x="120" y="60" width="100" height="30" as="alternateBounds" />
          </mxGeometry>
        </mxCell>
        <mxCell id="e4HfKH6Nf01WdUcodll_-52" value="+ birthday" style="text;strokeColor=none;fillColor=none;align=left;verticalAlign=top;spacingLeft=4;spacingRight=4;overflow=hidden;rotatable=0;points=[[0,0.5],[1,0.5]];portConstraint=eastwest;rounded=1;fontColor=#E4FDE1;" parent="e4HfKH6Nf01WdUcodll_-42" vertex="1">
          <mxGeometry y="30" width="200" height="26" as="geometry" />
        </mxCell>
        <mxCell id="e4HfKH6Nf01WdUcodll_-43" value="+ name" style="text;strokeColor=none;fillColor=none;align=left;verticalAlign=top;spacingLeft=4;spacingRight=4;overflow=hidden;rotatable=0;points=[[0,0.5],[1,0.5]];portConstraint=eastwest;rounded=1;fontColor=#E4FDE1;" parent="e4HfKH6Nf01WdUcodll_-42" vertex="1">
          <mxGeometry y="56" width="200" height="26" as="geometry" />
        </mxCell>
        <mxCell id="KBlOWy45lpfhE70E7ze1-1" value="+ phones" style="text;strokeColor=none;fillColor=none;align=left;verticalAlign=top;spacingLeft=4;spacingRight=4;overflow=hidden;rotatable=0;points=[[0,0.5],[1,0.5]];portConstraint=eastwest;rounded=1;fontColor=#E4FDE1;" vertex="1" parent="e4HfKH6Nf01WdUcodll_-42">
          <mxGeometry y="82" width="200" height="26" as="geometry" />
        </mxCell>
        <mxCell id="KBlOWy45lpfhE70E7ze1-2" value="+ email" style="text;strokeColor=none;fillColor=none;align=left;verticalAlign=top;spacingLeft=4;spacingRight=4;overflow=hidden;rotatable=0;points=[[0,0.5],[1,0.5]];portConstraint=eastwest;rounded=1;fontColor=#E4FDE1;" vertex="1" parent="e4HfKH6Nf01WdUcodll_-42">
          <mxGeometry y="108" width="200" height="26" as="geometry" />
        </mxCell>
        <mxCell id="KBlOWy45lpfhE70E7ze1-3" value="+ status" style="text;strokeColor=none;fillColor=none;align=left;verticalAlign=top;spacingLeft=4;spacingRight=4;overflow=hidden;rotatable=0;points=[[0,0.5],[1,0.5]];portConstraint=eastwest;rounded=1;fontColor=#E4FDE1;" vertex="1" parent="e4HfKH6Nf01WdUcodll_-42">
          <mxGeometry y="134" width="200" height="26" as="geometry" />
        </mxCell>
        <mxCell id="KBlOWy45lpfhE70E7ze1-4" value="+ note" style="text;strokeColor=none;fillColor=none;align=left;verticalAlign=top;spacingLeft=4;spacingRight=4;overflow=hidden;rotatable=0;points=[[0,0.5],[1,0.5]];portConstraint=eastwest;rounded=1;fontColor=#E4FDE1;" vertex="1" parent="e4HfKH6Nf01WdUcodll_-42">
          <mxGeometry y="160" width="200" height="26" as="geometry" />
        </mxCell>
        <mxCell id="e4HfKH6Nf01WdUcodll_-44" value="" style="line;strokeWidth=1;fillColor=none;align=left;verticalAlign=middle;spacingTop=-1;spacingLeft=3;spacingRight=3;rotatable=0;labelPosition=right;points=[];portConstraint=eastwest;strokeColor=#028090;rounded=1;fontColor=#E4FDE1;labelBackgroundColor=#114B5F;" parent="e4HfKH6Nf01WdUcodll_-42" vertex="1">
          <mxGeometry y="186" width="200" height="8" as="geometry" />
        </mxCell>
        <mxCell id="e4HfKH6Nf01WdUcodll_-45" value="+ def days_to_birthday()" style="text;strokeColor=none;fillColor=none;align=left;verticalAlign=top;spacingLeft=4;spacingRight=4;overflow=hidden;rotatable=0;points=[[0,0.5],[1,0.5]];portConstraint=eastwest;rounded=1;fontColor=#E4FDE1;" parent="e4HfKH6Nf01WdUcodll_-42" vertex="1">
          <mxGeometry y="194" width="200" height="26" as="geometry" />
        </mxCell>
        <mxCell id="KBlOWy45lpfhE70E7ze1-87" value="1" style="endArrow=open;html=1;endSize=12;startArrow=diamondThin;startSize=14;startFill=0;edgeStyle=orthogonalEdgeStyle;align=left;verticalAlign=bottom;rounded=0;strokeColor=#d6b656;fontColor=none;fillColor=#fff2cc;entryX=0;entryY=0.25;entryDx=0;entryDy=0;labelBackgroundColor=none;noLabel=1;gradientColor=#ffd966;" edge="1" parent="e4HfKH6Nf01WdUcodll_-42" target="KBlOWy45lpfhE70E7ze1-17">
          <mxGeometry x="-1" y="3" relative="1" as="geometry">
            <mxPoint as="sourcePoint" />
            <mxPoint x="280" y="-100" as="targetPoint" />
            <Array as="points">
              <mxPoint />
              <mxPoint y="-40" />
              <mxPoint x="-30" y="-40" />
              <mxPoint x="-30" y="-343" />
            </Array>
          </mxGeometry>
        </mxCell>
        <mxCell id="KBlOWy45lpfhE70E7ze1-5" value="Field" style="swimlane;fontStyle=2;align=center;verticalAlign=top;childLayout=stackLayout;horizontal=1;startSize=26;horizontalStack=0;resizeParent=1;resizeParentMax=0;resizeLast=0;collapsible=1;marginBottom=0;strokeColor=#666666;fillColor=#f5f5f5;gradientColor=#b3b3b3;" vertex="1" parent="1">
          <mxGeometry x="289" y="144" width="290" height="60" as="geometry" />
        </mxCell>
        <mxCell id="KBlOWy45lpfhE70E7ze1-7" value="" style="line;strokeWidth=1;fillColor=none;align=left;verticalAlign=middle;spacingTop=-1;spacingLeft=3;spacingRight=3;rotatable=0;labelPosition=right;points=[];portConstraint=eastwest;strokeColor=inherit;fontColor=#E4FDE1;" vertex="1" parent="KBlOWy45lpfhE70E7ze1-5">
          <mxGeometry y="26" width="290" height="8" as="geometry" />
        </mxCell>
        <mxCell id="KBlOWy45lpfhE70E7ze1-8" value="- def __getitem__()" style="text;strokeColor=none;fillColor=none;align=left;verticalAlign=top;spacingLeft=4;spacingRight=4;overflow=hidden;rotatable=0;points=[[0,0.5],[1,0.5]];portConstraint=eastwest;fontColor=#E4FDE1;" vertex="1" parent="KBlOWy45lpfhE70E7ze1-5">
          <mxGeometry y="34" width="290" height="26" as="geometry" />
        </mxCell>
        <mxCell id="KBlOWy45lpfhE70E7ze1-13" value="Phone" style="swimlane;fontStyle=1;align=center;verticalAlign=top;childLayout=stackLayout;horizontal=1;startSize=26;horizontalStack=0;resizeParent=1;resizeParentMax=0;resizeLast=0;collapsible=1;marginBottom=0;strokeColor=#b85450;fillColor=#f8cecc;gradientColor=#ea6b66;" vertex="1" parent="1">
          <mxGeometry x="89" y="364" width="160" height="66" as="geometry">
            <mxRectangle x="40" y="310" width="80" height="30" as="alternateBounds" />
          </mxGeometry>
        </mxCell>
        <mxCell id="KBlOWy45lpfhE70E7ze1-52" value="&lt;span style=&quot;&quot;&gt;+ value&lt;/span&gt;" style="text;html=1;resizable=0;autosize=1;align=left;verticalAlign=middle;points=[];fillColor=none;strokeColor=none;rounded=0;fontColor=#E4FDE1;" vertex="1" parent="KBlOWy45lpfhE70E7ze1-13">
          <mxGeometry y="26" width="160" height="30" as="geometry" />
        </mxCell>
        <mxCell id="KBlOWy45lpfhE70E7ze1-15" value="" style="line;strokeWidth=1;fillColor=none;align=left;verticalAlign=middle;spacingTop=-1;spacingLeft=3;spacingRight=3;rotatable=0;labelPosition=right;points=[];portConstraint=eastwest;strokeColor=inherit;fontColor=#E4FDE1;" vertex="1" parent="KBlOWy45lpfhE70E7ze1-13">
          <mxGeometry y="56" width="160" height="10" as="geometry" />
        </mxCell>
        <mxCell id="KBlOWy45lpfhE70E7ze1-23" value="Status" style="swimlane;fontStyle=1;align=center;verticalAlign=top;childLayout=stackLayout;horizontal=1;startSize=26;horizontalStack=0;resizeParent=1;resizeParentMax=0;resizeLast=0;collapsible=1;marginBottom=0;strokeColor=#b85450;fillColor=#f8cecc;gradientColor=#ea6b66;" vertex="1" parent="1">
          <mxGeometry x="89" y="604" width="160" height="64" as="geometry">
            <mxRectangle x="330" y="250" width="80" height="30" as="alternateBounds" />
          </mxGeometry>
        </mxCell>
        <mxCell id="KBlOWy45lpfhE70E7ze1-59" value="&lt;span style=&quot;&quot;&gt;+ value&lt;/span&gt;" style="text;html=1;align=left;verticalAlign=middle;resizable=0;points=[];autosize=1;strokeColor=none;fillColor=none;fontColor=#E4FDE1;" vertex="1" parent="KBlOWy45lpfhE70E7ze1-23">
          <mxGeometry y="26" width="160" height="30" as="geometry" />
        </mxCell>
        <mxCell id="KBlOWy45lpfhE70E7ze1-24" value="" style="line;strokeWidth=1;fillColor=#f8cecc;align=left;verticalAlign=middle;spacingTop=-1;spacingLeft=3;spacingRight=3;rotatable=0;labelPosition=right;points=[];portConstraint=eastwest;strokeColor=#b85450;gradientColor=#ea6b66;" vertex="1" parent="KBlOWy45lpfhE70E7ze1-23">
          <mxGeometry y="56" width="160" height="8" as="geometry" />
        </mxCell>
        <mxCell id="KBlOWy45lpfhE70E7ze1-30" value="Note" style="swimlane;fontStyle=1;align=center;verticalAlign=top;childLayout=stackLayout;horizontal=1;startSize=26;horizontalStack=0;resizeParent=1;resizeParentMax=0;resizeLast=0;collapsible=1;marginBottom=0;strokeColor=#b85450;fillColor=#f8cecc;gradientColor=#ea6b66;" vertex="1" parent="1">
          <mxGeometry x="89" y="674" width="160" height="66" as="geometry">
            <mxRectangle x="330" y="250" width="80" height="30" as="alternateBounds" />
          </mxGeometry>
        </mxCell>
        <mxCell id="KBlOWy45lpfhE70E7ze1-60" value="&lt;span style=&quot;&quot;&gt;+ value&lt;/span&gt;" style="text;html=1;align=left;verticalAlign=middle;resizable=0;points=[];autosize=1;strokeColor=none;fillColor=none;fontColor=#E4FDE1;" vertex="1" parent="KBlOWy45lpfhE70E7ze1-30">
          <mxGeometry y="26" width="160" height="30" as="geometry" />
        </mxCell>
        <mxCell id="KBlOWy45lpfhE70E7ze1-31" value="" style="line;strokeWidth=1;fillColor=none;align=left;verticalAlign=middle;spacingTop=-1;spacingLeft=3;spacingRight=3;rotatable=0;labelPosition=right;points=[];portConstraint=eastwest;strokeColor=inherit;fontColor=#E4FDE1;" vertex="1" parent="KBlOWy45lpfhE70E7ze1-30">
          <mxGeometry y="56" width="160" height="10" as="geometry" />
        </mxCell>
        <mxCell id="KBlOWy45lpfhE70E7ze1-46" value="Bot" style="swimlane;fontStyle=1;align=center;verticalAlign=top;childLayout=stackLayout;horizontal=1;startSize=26;horizontalStack=0;resizeParent=1;resizeParentMax=0;resizeLast=0;collapsible=1;marginBottom=0;strokeColor=#82b366;fillColor=#d5e8d4;gradientColor=#97d077;" vertex="1" parent="1">
          <mxGeometry x="609" y="324" width="160" height="86" as="geometry" />
        </mxCell>
        <mxCell id="KBlOWy45lpfhE70E7ze1-47" value="+ book" style="text;strokeColor=none;fillColor=none;align=left;verticalAlign=top;spacingLeft=4;spacingRight=4;overflow=hidden;rotatable=0;points=[[0,0.5],[1,0.5]];portConstraint=eastwest;fontColor=#E4FDE1;" vertex="1" parent="KBlOWy45lpfhE70E7ze1-46">
          <mxGeometry y="26" width="160" height="26" as="geometry" />
        </mxCell>
        <mxCell id="KBlOWy45lpfhE70E7ze1-48" value="" style="line;strokeWidth=1;fillColor=none;align=left;verticalAlign=middle;spacingTop=-1;spacingLeft=3;spacingRight=3;rotatable=0;labelPosition=right;points=[];portConstraint=eastwest;strokeColor=inherit;fontColor=#E4FDE1;" vertex="1" parent="KBlOWy45lpfhE70E7ze1-46">
          <mxGeometry y="52" width="160" height="8" as="geometry" />
        </mxCell>
        <mxCell id="KBlOWy45lpfhE70E7ze1-49" value="+ def handle()" style="text;strokeColor=none;fillColor=none;align=left;verticalAlign=top;spacingLeft=4;spacingRight=4;overflow=hidden;rotatable=0;points=[[0,0.5],[1,0.5]];portConstraint=eastwest;fontColor=#E4FDE1;" vertex="1" parent="KBlOWy45lpfhE70E7ze1-46">
          <mxGeometry y="60" width="160" height="26" as="geometry" />
        </mxCell>
        <mxCell id="KBlOWy45lpfhE70E7ze1-20" value="Email" style="swimlane;fontStyle=1;align=center;verticalAlign=top;childLayout=stackLayout;horizontal=1;startSize=26;horizontalStack=0;resizeParent=1;resizeParentMax=0;resizeLast=0;collapsible=1;marginBottom=0;strokeColor=#b85450;fillColor=#f8cecc;gradientColor=#ea6b66;" vertex="1" parent="1">
          <mxGeometry x="89" y="524" width="160" height="66" as="geometry">
            <mxRectangle x="330" y="250" width="80" height="30" as="alternateBounds" />
          </mxGeometry>
        </mxCell>
        <mxCell id="KBlOWy45lpfhE70E7ze1-56" value="&lt;span style=&quot;&quot;&gt;+ value&lt;/span&gt;" style="text;html=1;align=left;verticalAlign=middle;resizable=0;points=[];autosize=1;strokeColor=none;fillColor=none;fontColor=#E4FDE1;" vertex="1" parent="KBlOWy45lpfhE70E7ze1-20">
          <mxGeometry y="26" width="160" height="30" as="geometry" />
        </mxCell>
        <mxCell id="KBlOWy45lpfhE70E7ze1-21" value="" style="line;strokeWidth=1;fillColor=none;align=left;verticalAlign=middle;spacingTop=-1;spacingLeft=3;spacingRight=3;rotatable=0;labelPosition=right;points=[];portConstraint=eastwest;strokeColor=inherit;fontColor=#E4FDE1;" vertex="1" parent="KBlOWy45lpfhE70E7ze1-20">
          <mxGeometry y="56" width="160" height="10" as="geometry" />
        </mxCell>
        <mxCell id="KBlOWy45lpfhE70E7ze1-17" value="Birthday&#xa;" style="swimlane;fontStyle=1;align=center;verticalAlign=top;childLayout=stackLayout;horizontal=1;startSize=26;horizontalStack=0;resizeParent=1;resizeParentMax=0;resizeLast=0;collapsible=1;marginBottom=0;strokeColor=#b85450;fillColor=#f8cecc;gradientColor=#ea6b66;" vertex="1" parent="1">
          <mxGeometry x="89" y="444" width="160" height="66" as="geometry">
            <mxRectangle x="330" y="250" width="80" height="30" as="alternateBounds" />
          </mxGeometry>
        </mxCell>
        <mxCell id="KBlOWy45lpfhE70E7ze1-55" value="&lt;span style=&quot;&quot;&gt;+ value&lt;/span&gt;" style="text;html=1;align=left;verticalAlign=middle;resizable=0;points=[];autosize=1;strokeColor=none;fillColor=none;fontColor=#E4FDE1;" vertex="1" parent="KBlOWy45lpfhE70E7ze1-17">
          <mxGeometry y="26" width="160" height="30" as="geometry" />
        </mxCell>
        <mxCell id="KBlOWy45lpfhE70E7ze1-18" value="" style="line;strokeWidth=1;fillColor=none;align=left;verticalAlign=middle;spacingTop=-1;spacingLeft=3;spacingRight=3;rotatable=0;labelPosition=right;points=[];portConstraint=eastwest;strokeColor=inherit;fontColor=#E4FDE1;" vertex="1" parent="KBlOWy45lpfhE70E7ze1-17">
          <mxGeometry y="56" width="160" height="10" as="geometry" />
        </mxCell>
        <mxCell id="KBlOWy45lpfhE70E7ze1-61" value="AddressBook" style="swimlane;fontStyle=1;align=center;verticalAlign=top;childLayout=stackLayout;horizontal=1;startSize=26;horizontalStack=0;resizeParent=1;resizeParentMax=0;resizeLast=0;collapsible=1;marginBottom=0;strokeColor=#6c8ebf;fillColor=#dae8fc;gradientColor=#7ea6e0;" vertex="1" parent="1">
          <mxGeometry x="369" y="324" width="160" height="450" as="geometry" />
        </mxCell>
        <mxCell id="KBlOWy45lpfhE70E7ze1-62" value="+ data" style="text;strokeColor=none;fillColor=none;align=left;verticalAlign=top;spacingLeft=4;spacingRight=4;overflow=hidden;rotatable=0;points=[[0,0.5],[1,0.5]];portConstraint=eastwest;fontColor=#E4FDE1;" vertex="1" parent="KBlOWy45lpfhE70E7ze1-61">
          <mxGeometry y="26" width="160" height="26" as="geometry" />
        </mxCell>
        <mxCell id="KBlOWy45lpfhE70E7ze1-67" value="+ counter" style="text;strokeColor=none;fillColor=none;align=left;verticalAlign=top;spacingLeft=4;spacingRight=4;overflow=hidden;rotatable=0;points=[[0,0.5],[1,0.5]];portConstraint=eastwest;fontColor=#E4FDE1;" vertex="1" parent="KBlOWy45lpfhE70E7ze1-61">
          <mxGeometry y="52" width="160" height="26" as="geometry" />
        </mxCell>
        <mxCell id="KBlOWy45lpfhE70E7ze1-63" value="" style="line;strokeWidth=1;fillColor=none;align=left;verticalAlign=middle;spacingTop=-1;spacingLeft=3;spacingRight=3;rotatable=0;labelPosition=right;points=[];portConstraint=eastwest;strokeColor=inherit;fontColor=#E4FDE1;" vertex="1" parent="KBlOWy45lpfhE70E7ze1-61">
          <mxGeometry y="78" width="160" height="8" as="geometry" />
        </mxCell>
        <mxCell id="KBlOWy45lpfhE70E7ze1-64" value="- def __str__()" style="text;strokeColor=none;fillColor=none;align=left;verticalAlign=top;spacingLeft=4;spacingRight=4;overflow=hidden;rotatable=0;points=[[0,0.5],[1,0.5]];portConstraint=eastwest;fontColor=#E4FDE1;" vertex="1" parent="KBlOWy45lpfhE70E7ze1-61">
          <mxGeometry y="86" width="160" height="26" as="geometry" />
        </mxCell>
        <mxCell id="KBlOWy45lpfhE70E7ze1-68" value="- def __next__()" style="text;strokeColor=none;fillColor=none;align=left;verticalAlign=top;spacingLeft=4;spacingRight=4;overflow=hidden;rotatable=0;points=[[0,0.5],[1,0.5]];portConstraint=eastwest;fontColor=#E4FDE1;" vertex="1" parent="KBlOWy45lpfhE70E7ze1-61">
          <mxGeometry y="112" width="160" height="26" as="geometry" />
        </mxCell>
        <mxCell id="KBlOWy45lpfhE70E7ze1-69" value="- def __setitem__()" style="text;strokeColor=none;fillColor=none;align=left;verticalAlign=top;spacingLeft=4;spacingRight=4;overflow=hidden;rotatable=0;points=[[0,0.5],[1,0.5]];portConstraint=eastwest;fontColor=#E4FDE1;" vertex="1" parent="KBlOWy45lpfhE70E7ze1-61">
          <mxGeometry y="138" width="160" height="26" as="geometry" />
        </mxCell>
        <mxCell id="KBlOWy45lpfhE70E7ze1-70" value="- def __getitem__()" style="text;strokeColor=none;fillColor=none;align=left;verticalAlign=top;spacingLeft=4;spacingRight=4;overflow=hidden;rotatable=0;points=[[0,0.5],[1,0.5]];portConstraint=eastwest;fontColor=#E4FDE1;" vertex="1" parent="KBlOWy45lpfhE70E7ze1-61">
          <mxGeometry y="164" width="160" height="26" as="geometry" />
        </mxCell>
        <mxCell id="KBlOWy45lpfhE70E7ze1-71" value="- def __iter__()" style="text;strokeColor=none;fillColor=none;align=left;verticalAlign=top;spacingLeft=4;spacingRight=4;overflow=hidden;rotatable=0;points=[[0,0.5],[1,0.5]];portConstraint=eastwest;fontColor=#E4FDE1;" vertex="1" parent="KBlOWy45lpfhE70E7ze1-61">
          <mxGeometry y="190" width="160" height="26" as="geometry" />
        </mxCell>
        <mxCell id="KBlOWy45lpfhE70E7ze1-72" value="+ def log()" style="text;strokeColor=none;fillColor=none;align=left;verticalAlign=top;spacingLeft=4;spacingRight=4;overflow=hidden;rotatable=0;points=[[0,0.5],[1,0.5]];portConstraint=eastwest;fontColor=#E4FDE1;" vertex="1" parent="KBlOWy45lpfhE70E7ze1-61">
          <mxGeometry y="216" width="160" height="26" as="geometry" />
        </mxCell>
        <mxCell id="KBlOWy45lpfhE70E7ze1-73" value="+ def add()" style="text;strokeColor=none;fillColor=none;align=left;verticalAlign=top;spacingLeft=4;spacingRight=4;overflow=hidden;rotatable=0;points=[[0,0.5],[1,0.5]];portConstraint=eastwest;fontColor=#E4FDE1;" vertex="1" parent="KBlOWy45lpfhE70E7ze1-61">
          <mxGeometry y="242" width="160" height="26" as="geometry" />
        </mxCell>
        <mxCell id="KBlOWy45lpfhE70E7ze1-74" value="+ def save()" style="text;strokeColor=none;fillColor=none;align=left;verticalAlign=top;spacingLeft=4;spacingRight=4;overflow=hidden;rotatable=0;points=[[0,0.5],[1,0.5]];portConstraint=eastwest;fontColor=#E4FDE1;" vertex="1" parent="KBlOWy45lpfhE70E7ze1-61">
          <mxGeometry y="268" width="160" height="26" as="geometry" />
        </mxCell>
        <mxCell id="KBlOWy45lpfhE70E7ze1-75" value="+ def load()" style="text;strokeColor=none;fillColor=none;align=left;verticalAlign=top;spacingLeft=4;spacingRight=4;overflow=hidden;rotatable=0;points=[[0,0.5],[1,0.5]];portConstraint=eastwest;fontColor=#E4FDE1;" vertex="1" parent="KBlOWy45lpfhE70E7ze1-61">
          <mxGeometry y="294" width="160" height="26" as="geometry" />
        </mxCell>
        <mxCell id="KBlOWy45lpfhE70E7ze1-76" value="+ def search()" style="text;strokeColor=none;fillColor=none;align=left;verticalAlign=top;spacingLeft=4;spacingRight=4;overflow=hidden;rotatable=0;points=[[0,0.5],[1,0.5]];portConstraint=eastwest;fontColor=#E4FDE1;" vertex="1" parent="KBlOWy45lpfhE70E7ze1-61">
          <mxGeometry y="320" width="160" height="26" as="geometry" />
        </mxCell>
        <mxCell id="KBlOWy45lpfhE70E7ze1-77" value="+ def edit()" style="text;strokeColor=none;fillColor=none;align=left;verticalAlign=top;spacingLeft=4;spacingRight=4;overflow=hidden;rotatable=0;points=[[0,0.5],[1,0.5]];portConstraint=eastwest;fontColor=#E4FDE1;" vertex="1" parent="KBlOWy45lpfhE70E7ze1-61">
          <mxGeometry y="346" width="160" height="26" as="geometry" />
        </mxCell>
        <mxCell id="KBlOWy45lpfhE70E7ze1-78" value="+ def remove()" style="text;strokeColor=none;fillColor=none;align=left;verticalAlign=top;spacingLeft=4;spacingRight=4;overflow=hidden;rotatable=0;points=[[0,0.5],[1,0.5]];portConstraint=eastwest;fontColor=#E4FDE1;" vertex="1" parent="KBlOWy45lpfhE70E7ze1-61">
          <mxGeometry y="372" width="160" height="26" as="geometry" />
        </mxCell>
        <mxCell id="KBlOWy45lpfhE70E7ze1-79" value="- def __get_current_week()" style="text;strokeColor=none;fillColor=none;align=left;verticalAlign=top;spacingLeft=4;spacingRight=4;overflow=hidden;rotatable=0;points=[[0,0.5],[1,0.5]];portConstraint=eastwest;fontColor=#E4FDE1;" vertex="1" parent="KBlOWy45lpfhE70E7ze1-61">
          <mxGeometry y="398" width="160" height="26" as="geometry" />
        </mxCell>
        <mxCell id="KBlOWy45lpfhE70E7ze1-80" value="+ def congratulate()" style="text;strokeColor=none;fillColor=none;align=left;verticalAlign=top;spacingLeft=4;spacingRight=4;overflow=hidden;rotatable=0;points=[[0,0.5],[1,0.5]];portConstraint=eastwest;fontColor=#E4FDE1;" vertex="1" parent="KBlOWy45lpfhE70E7ze1-61">
          <mxGeometry y="424" width="160" height="26" as="geometry" />
        </mxCell>
        <mxCell id="KBlOWy45lpfhE70E7ze1-81" value="1" style="endArrow=open;html=1;endSize=12;startArrow=diamondThin;startSize=14;startFill=1;edgeStyle=orthogonalEdgeStyle;align=left;verticalAlign=bottom;rounded=0;strokeColor=#b85450;fontColor=#E4FDE1;fillColor=#f8cecc;exitX=1;exitY=0.25;exitDx=0;exitDy=0;entryX=0;entryY=0.25;entryDx=0;entryDy=0;gradientColor=#ea6b66;" edge="1" parent="1" source="KBlOWy45lpfhE70E7ze1-13" target="KBlOWy45lpfhE70E7ze1-5">
          <mxGeometry x="-1" y="3" relative="1" as="geometry">
            <mxPoint x="439" y="464" as="sourcePoint" />
            <mxPoint x="599" y="464" as="targetPoint" />
          </mxGeometry>
        </mxCell>
        <mxCell id="KBlOWy45lpfhE70E7ze1-82" value="1" style="endArrow=open;html=1;endSize=12;startArrow=diamondThin;startSize=14;startFill=1;edgeStyle=orthogonalEdgeStyle;align=left;verticalAlign=bottom;rounded=0;strokeColor=#b85450;fontColor=#E4FDE1;fillColor=#f8cecc;exitX=1;exitY=0.25;exitDx=0;exitDy=0;entryX=0;entryY=0.25;entryDx=0;entryDy=0;gradientColor=#ea6b66;" edge="1" parent="1" source="KBlOWy45lpfhE70E7ze1-17" target="KBlOWy45lpfhE70E7ze1-5">
          <mxGeometry x="-1" y="3" relative="1" as="geometry">
            <mxPoint x="439" y="464" as="sourcePoint" />
            <mxPoint x="449" y="384" as="targetPoint" />
          </mxGeometry>
        </mxCell>
        <mxCell id="KBlOWy45lpfhE70E7ze1-83" value="1" style="endArrow=open;html=1;endSize=12;startArrow=diamondThin;startSize=14;startFill=1;edgeStyle=orthogonalEdgeStyle;align=left;verticalAlign=bottom;rounded=0;strokeColor=#b85450;fontColor=#E4FDE1;fillColor=#f8cecc;exitX=1;exitY=0.25;exitDx=0;exitDy=0;entryX=0;entryY=0.25;entryDx=0;entryDy=0;gradientColor=#ea6b66;" edge="1" parent="1" source="KBlOWy45lpfhE70E7ze1-20" target="KBlOWy45lpfhE70E7ze1-5">
          <mxGeometry x="-1" y="3" relative="1" as="geometry">
            <mxPoint x="439" y="464" as="sourcePoint" />
            <mxPoint x="389" y="214" as="targetPoint" />
          </mxGeometry>
        </mxCell>
        <mxCell id="KBlOWy45lpfhE70E7ze1-84" value="1" style="endArrow=open;html=1;endSize=12;startArrow=diamondThin;startSize=14;startFill=1;edgeStyle=orthogonalEdgeStyle;align=left;verticalAlign=bottom;rounded=0;strokeColor=#b85450;fontColor=#E4FDE1;fillColor=#f8cecc;exitX=1;exitY=0.25;exitDx=0;exitDy=0;entryX=0;entryY=0.25;entryDx=0;entryDy=0;gradientColor=#ea6b66;" edge="1" parent="1" source="KBlOWy45lpfhE70E7ze1-23" target="KBlOWy45lpfhE70E7ze1-5">
          <mxGeometry x="-1" y="3" relative="1" as="geometry">
            <mxPoint x="289" y="614" as="sourcePoint" />
            <mxPoint x="449" y="614" as="targetPoint" />
          </mxGeometry>
        </mxCell>
        <mxCell id="KBlOWy45lpfhE70E7ze1-85" value="1" style="endArrow=open;html=1;endSize=12;startArrow=diamondThin;startSize=14;startFill=1;edgeStyle=orthogonalEdgeStyle;align=left;verticalAlign=bottom;rounded=0;strokeColor=#b85450;fontColor=#E4FDE1;fillColor=#f8cecc;exitX=1;exitY=0.25;exitDx=0;exitDy=0;entryX=0;entryY=0.25;entryDx=0;entryDy=0;gradientColor=#ea6b66;" edge="1" parent="1" source="KBlOWy45lpfhE70E7ze1-30" target="KBlOWy45lpfhE70E7ze1-5">
          <mxGeometry x="-1" y="3" relative="1" as="geometry">
            <mxPoint x="289" y="664" as="sourcePoint" />
            <mxPoint x="379" y="224" as="targetPoint" />
          </mxGeometry>
        </mxCell>
        <mxCell id="KBlOWy45lpfhE70E7ze1-86" value="1" style="endArrow=open;html=1;endSize=12;startArrow=diamondThin;startSize=14;startFill=0;edgeStyle=orthogonalEdgeStyle;align=left;verticalAlign=bottom;rounded=0;strokeColor=#d6b656;fontColor=none;fillColor=#fff2cc;entryX=0;entryY=0.25;entryDx=0;entryDy=0;exitX=0;exitY=0;exitDx=0;exitDy=0;labelBackgroundColor=none;noLabel=1;gradientColor=#ffd966;" edge="1" parent="1" source="e4HfKH6Nf01WdUcodll_-42" target="KBlOWy45lpfhE70E7ze1-13">
          <mxGeometry x="-1" y="3" relative="1" as="geometry">
            <mxPoint x="109" y="804" as="sourcePoint" />
            <mxPoint x="69" y="684" as="targetPoint" />
            <Array as="points">
              <mxPoint x="89" y="764" />
              <mxPoint x="59" y="764" />
              <mxPoint x="59" y="381" />
            </Array>
          </mxGeometry>
        </mxCell>
        <mxCell id="KBlOWy45lpfhE70E7ze1-88" value="1" style="endArrow=open;html=1;endSize=12;startArrow=diamondThin;startSize=14;startFill=0;edgeStyle=orthogonalEdgeStyle;align=left;verticalAlign=bottom;rounded=0;strokeColor=#d6b656;fontColor=none;fillColor=#fff2cc;exitX=0;exitY=0;exitDx=0;exitDy=0;entryX=0;entryY=0.25;entryDx=0;entryDy=0;labelBackgroundColor=none;noLabel=1;gradientColor=#ffd966;" edge="1" parent="1" source="e4HfKH6Nf01WdUcodll_-42" target="KBlOWy45lpfhE70E7ze1-20">
          <mxGeometry x="-1" y="3" relative="1" as="geometry">
            <mxPoint x="429" y="644" as="sourcePoint" />
            <mxPoint x="589" y="644" as="targetPoint" />
            <Array as="points">
              <mxPoint x="89" y="764" />
              <mxPoint x="59" y="764" />
              <mxPoint x="59" y="541" />
            </Array>
          </mxGeometry>
        </mxCell>
        <mxCell id="KBlOWy45lpfhE70E7ze1-89" value="1" style="endArrow=open;html=1;endSize=12;startArrow=diamondThin;startSize=14;startFill=0;edgeStyle=orthogonalEdgeStyle;align=left;verticalAlign=bottom;rounded=0;strokeColor=#d6b656;fontColor=none;fillColor=#fff2cc;exitX=0;exitY=0;exitDx=0;exitDy=0;entryX=0;entryY=0.25;entryDx=0;entryDy=0;labelBackgroundColor=none;noLabel=1;gradientColor=#ffd966;" edge="1" parent="1" source="e4HfKH6Nf01WdUcodll_-42" target="KBlOWy45lpfhE70E7ze1-23">
          <mxGeometry x="-1" relative="1" as="geometry">
            <mxPoint x="429" y="544" as="sourcePoint" />
            <mxPoint x="589" y="544" as="targetPoint" />
            <Array as="points">
              <mxPoint x="89" y="764" />
              <mxPoint x="59" y="764" />
              <mxPoint x="59" y="620" />
            </Array>
            <mxPoint as="offset" />
          </mxGeometry>
        </mxCell>
        <mxCell id="KBlOWy45lpfhE70E7ze1-90" value="1" style="endArrow=open;html=1;endSize=12;startArrow=diamondThin;startSize=14;startFill=0;edgeStyle=orthogonalEdgeStyle;align=left;verticalAlign=bottom;rounded=0;strokeColor=#d6b656;fontColor=none;fillColor=#fff2cc;exitX=0;exitY=0;exitDx=0;exitDy=0;entryX=0;entryY=0.25;entryDx=0;entryDy=0;labelBackgroundColor=none;noLabel=1;gradientColor=#ffd966;" edge="1" parent="1" source="e4HfKH6Nf01WdUcodll_-42" target="KBlOWy45lpfhE70E7ze1-30">
          <mxGeometry x="-1" y="3" relative="1" as="geometry">
            <mxPoint x="429" y="744" as="sourcePoint" />
            <mxPoint x="589" y="744" as="targetPoint" />
            <Array as="points">
              <mxPoint x="89" y="764" />
              <mxPoint x="59" y="764" />
              <mxPoint x="59" y="691" />
            </Array>
          </mxGeometry>
        </mxCell>
        <mxCell id="KBlOWy45lpfhE70E7ze1-102" value="" style="html=1;verticalAlign=bottom;endArrow=block;rounded=0;labelBackgroundColor=none;strokeColor=#82b366;fontColor=none;fillColor=#d5e8d4;exitX=0.998;exitY=0.037;exitDx=0;exitDy=0;entryX=0.5;entryY=0;entryDx=0;entryDy=0;gradientColor=#97d077;exitPerimeter=0;" edge="1" parent="1" source="KBlOWy45lpfhE70E7ze1-61" target="KBlOWy45lpfhE70E7ze1-46">
          <mxGeometry width="80" relative="1" as="geometry">
            <mxPoint x="469" y="424" as="sourcePoint" />
            <mxPoint x="549" y="424" as="targetPoint" />
            <Array as="points">
              <mxPoint x="579" y="341" />
              <mxPoint x="579" y="244" />
              <mxPoint x="689" y="244" />
            </Array>
          </mxGeometry>
        </mxCell>
        <mxCell id="KBlOWy45lpfhE70E7ze1-103" value="" style="endArrow=open;html=1;endSize=12;startArrow=diamondThin;startSize=14;startFill=0;edgeStyle=orthogonalEdgeStyle;align=left;verticalAlign=bottom;rounded=0;labelBackgroundColor=none;strokeColor=#6c8ebf;fontColor=none;fillColor=#dae8fc;exitX=1;exitY=0;exitDx=0;exitDy=0;entryX=0.004;entryY=0.035;entryDx=0;entryDy=0;entryPerimeter=0;gradientColor=#7ea6e0;" edge="1" parent="1" source="e4HfKH6Nf01WdUcodll_-42" target="KBlOWy45lpfhE70E7ze1-61">
          <mxGeometry x="-1" y="3" relative="1" as="geometry">
            <mxPoint x="429" y="724" as="sourcePoint" />
            <mxPoint x="589" y="724" as="targetPoint" />
          </mxGeometry>
        </mxCell>
      </root>
    </mxGraphModel>
  </diagram>
</mxfile>
